<svg xmlns="http://www.w3.org/2000/svg" xmlns:xlink="http://www.w3.org/1999/xlink" width="150" zoomAndPan="magnify" viewBox="0 0 112.5 30.000001" height="40" preserveAspectRatio="xMidYMid meet" version="1.0"><defs><g/><clipPath id="24246c3cc6"><path d="M 1.574219 0 L 110.445312 0 L 110.445312 29.03125 L 1.574219 29.03125 Z M 1.574219 0 " clip-rule="nonzero"/></clipPath><clipPath id="86307253ac"><path d="M 25 0 L 91 0 L 91 29.03125 L 25 29.03125 Z M 25 0 " clip-rule="nonzero"/></clipPath><clipPath id="ff186079ca"><path d="M 0.496094 0.230469 L 65.757812 0.230469 L 65.757812 29.03125 L 0.496094 29.03125 Z M 0.496094 0.230469 " clip-rule="nonzero"/></clipPath><clipPath id="6db372b5f7"><path d="M 0.496094 8 L 11 8 L 11 26 L 0.496094 26 Z M 0.496094 8 " clip-rule="nonzero"/></clipPath><clipPath id="852b791de0"><path d="M 19 0.464844 L 26 0.464844 L 26 26 L 19 26 Z M 19 0.464844 " clip-rule="nonzero"/></clipPath><clipPath id="a989ce937e"><path d="M 41 0.464844 L 49 0.464844 L 49 26 L 41 26 Z M 41 0.464844 " clip-rule="nonzero"/></clipPath><clipPath id="b887a5ca3e"><path d="M 49 2 L 65.757812 2 L 65.757812 26 L 49 26 Z M 49 2 " clip-rule="nonzero"/></clipPath><clipPath id="150836581c"><rect x="0" width="66" y="0" height="30"/></clipPath><clipPath id="4ccc96f0a0"><path d="M 41.710938 0.421875 L 48.769531 0.421875 L 48.769531 7.476562 L 41.710938 7.476562 Z M 41.710938 0.421875 " clip-rule="nonzero"/></clipPath><clipPath id="487d1177c4"><path d="M 0.710938 0.421875 L 7.769531 0.421875 L 7.769531 7.476562 L 0.710938 7.476562 Z M 0.710938 0.421875 " clip-rule="nonzero"/></clipPath><clipPath id="4171013caa"><rect x="0" width="8" y="0" height="8"/></clipPath><clipPath id="6eee349c74"><path d="M 41.839844 2.351562 L 48.644531 2.351562 L 48.644531 8.902344 L 41.839844 8.902344 Z M 41.839844 2.351562 " clip-rule="nonzero"/></clipPath><clipPath id="44b236d462"><path d="M 44.109375 2.546875 C 44.457031 2.429688 44.851562 2.351562 45.242188 2.351562 C 45.628906 2.351562 46.003906 2.417969 46.351562 2.535156 C 46.355469 2.539062 46.363281 2.539062 46.371094 2.542969 C 47.667969 3.019531 48.621094 4.273438 48.640625 5.699219 L 48.640625 8.902344 L 41.839844 8.902344 L 41.839844 5.699219 C 41.859375 4.265625 42.796875 3.011719 44.109375 2.546875 Z M 44.109375 2.546875 " clip-rule="nonzero"/></clipPath><clipPath id="3ba51a832c"><path d="M 0.839844 0.351562 L 7.644531 0.351562 L 7.644531 6.902344 L 0.839844 6.902344 Z M 0.839844 0.351562 " clip-rule="nonzero"/></clipPath><clipPath id="2610d21a80"><path d="M 3.109375 0.546875 C 3.457031 0.429688 3.851562 0.351562 4.242188 0.351562 C 4.628906 0.351562 5.003906 0.417969 5.351562 0.535156 C 5.355469 0.539062 5.363281 0.539062 5.371094 0.542969 C 6.667969 1.019531 7.621094 2.273438 7.640625 3.699219 L 7.640625 6.902344 L 0.839844 6.902344 L 0.839844 3.699219 C 0.859375 2.265625 1.796875 1.011719 3.109375 0.546875 Z M 3.109375 0.546875 " clip-rule="nonzero"/></clipPath><clipPath id="d8cf0ae90f"><rect x="0" width="8" y="0" height="7"/></clipPath><clipPath id="628973de31"><path d="M 41.828125 24.804688 L 48.636719 24.804688 L 48.636719 28.539062 L 41.828125 28.539062 Z M 41.828125 24.804688 " clip-rule="nonzero"/></clipPath><clipPath id="68171ab54c"><path d="M 46.371094 28.339844 C 46.023438 28.460938 45.625 28.539062 45.238281 28.539062 C 44.847656 28.539062 44.472656 28.46875 44.128906 28.351562 C 44.121094 28.347656 44.113281 28.347656 44.105469 28.34375 C 42.8125 27.871094 41.855469 26.613281 41.839844 25.253906 L 41.839844 24.804688 L 48.636719 24.804688 L 48.636719 25.25 C 48.621094 26.621094 47.679688 27.875 46.371094 28.339844 Z M 46.371094 28.339844 " clip-rule="nonzero"/></clipPath><clipPath id="8b2e03248b"><path d="M 0.835938 0.804688 L 7.636719 0.804688 L 7.636719 4.539062 L 0.835938 4.539062 Z M 0.835938 0.804688 " clip-rule="nonzero"/></clipPath><clipPath id="f1f31d9b58"><path d="M 5.371094 4.339844 C 5.023438 4.460938 4.625 4.539062 4.238281 4.539062 C 3.847656 4.539062 3.472656 4.46875 3.128906 4.351562 C 3.121094 4.347656 3.113281 4.347656 3.105469 4.34375 C 1.8125 3.871094 0.855469 2.613281 0.839844 1.253906 L 0.839844 0.804688 L 7.636719 0.804688 L 7.636719 1.25 C 7.621094 2.621094 6.679688 3.875 5.371094 4.339844 Z M 5.371094 4.339844 " clip-rule="nonzero"/></clipPath><clipPath id="e835b7d8b5"><rect x="0" width="8" y="0" height="5"/></clipPath><clipPath id="cf59b7e366"><rect x="0" width="66" y="0" height="30"/></clipPath></defs><g clip-path="url(#24246c3cc6)"><path fill="#ffffff" d="M 1.574219 0 L 110.445312 0 L 110.445312 29.03125 L 1.574219 29.03125 Z M 1.574219 0 " fill-opacity="1" fill-rule="nonzero"/><path fill="#ffffff" d="M 1.574219 0 L 110.445312 0 L 110.445312 29.03125 L 1.574219 29.03125 Z M 1.574219 0 " fill-opacity="1" fill-rule="nonzero"/></g><g clip-path="url(#86307253ac)"><g transform="matrix(1, 0, 0, 1, 25, 0.00000000000000569)"><g clip-path="url(#cf59b7e366)"><g clip-path="url(#ff186079ca)"><g transform="matrix(1, 0, 0, 1, 0, 0.000000000000005718)"><g clip-path="url(#150836581c)"><g clip-path="url(#6db372b5f7)"><g fill="#000000" fill-opacity="1"><g transform="translate(0.656204, 25.508168)"><g><path d="M 9.140625 0 C 7.398438 0 5.863281 -0.351562 4.53125 -1.0625 C 3.207031 -1.769531 2.175781 -2.757812 1.4375 -4.03125 C 0.707031 -5.300781 0.34375 -6.78125 0.34375 -8.46875 C 0.34375 -10.1875 0.707031 -11.675781 1.4375 -12.9375 C 2.175781 -14.195312 3.207031 -15.179688 4.53125 -15.890625 C 5.863281 -16.597656 7.398438 -16.945312 9.140625 -16.9375 C 9.671875 -16.9375 9.988281 -16.9375 10.09375 -16.9375 C 10.207031 -16.945312 10.238281 -16.953125 10.1875 -16.953125 C 10.132812 -16.953125 10.109375 -16.953125 10.109375 -16.953125 L 10.140625 -10.4375 C 10.140625 -10.4375 10.054688 -10.4375 9.890625 -10.4375 C 9.722656 -10.4375 9.472656 -10.4375 9.140625 -10.4375 C 8.566406 -10.4375 8.101562 -10.273438 7.75 -9.953125 C 7.394531 -9.640625 7.21875 -9.191406 7.21875 -8.609375 C 7.21875 -8.015625 7.394531 -7.5625 7.75 -7.25 C 8.101562 -6.9375 8.566406 -6.78125 9.140625 -6.78125 C 9.472656 -6.78125 9.722656 -6.78125 9.890625 -6.78125 C 10.054688 -6.78125 10.140625 -6.78125 10.140625 -6.78125 L 10.109375 0 C 10.265625 0 10.300781 0 10.21875 0 C 10.144531 0 10.109375 0 10.109375 0 C 10.054688 0 9.945312 0 9.78125 0 C 9.625 0 9.410156 0 9.140625 0 Z M 9.140625 0 "/></g></g></g></g><g fill="#000000" fill-opacity="1"><g transform="translate(11.245288, 25.508168)"><g><path d="M 0.34375 0 L 0.34375 -22.578125 L 7.109375 -22.578125 L 7.109375 0 Z M 0.34375 0 "/></g></g></g><g clip-path="url(#852b791de0)"><g fill="#000000" fill-opacity="1"><g transform="translate(18.696028, 25.508168)"><g><path d="M 7.109375 0 L 0.34375 0 L 0.34375 -16.9375 L 7.109375 -16.9375 Z M 7.109375 -18.015625 L 0.34375 -18.015625 L 0.34375 -24.796875 L 7.109375 -24.796875 Z M 7.109375 -18.015625 "/></g></g></g></g><g fill="#000000" fill-opacity="1"><g transform="translate(26.146769, 25.508168)"><g><path d="M 0.34375 -16.9375 L 8.109375 -16.9375 C 9.335938 -16.9375 10.476562 -16.703125 11.53125 -16.234375 C 12.59375 -15.765625 13.441406 -15.050781 14.078125 -14.09375 C 14.710938 -13.144531 15.03125 -11.925781 15.03125 -10.4375 L 15.03125 0 L 8.265625 0 L 8.265625 -8.84375 C 8.265625 -9.238281 8.238281 -9.5625 8.1875 -9.8125 C 8.132812 -10.070312 7.9375 -10.203125 7.59375 -10.203125 L 7.109375 -10.203125 L 7.109375 0 L 0.34375 0 Z M 0.34375 -16.9375 "/></g></g></g><g clip-path="url(#a989ce937e)"><g fill="#000000" fill-opacity="1"><g transform="translate(41.522389, 25.508168)"><g><path d="M 7.109375 0 L 0.34375 0 L 0.34375 -16.9375 L 7.109375 -16.9375 Z M 7.109375 -18.015625 L 0.34375 -18.015625 L 0.34375 -24.796875 L 7.109375 -24.796875 Z M 7.109375 -18.015625 "/></g></g></g></g><g clip-path="url(#b887a5ca3e)"><g fill="#000000" fill-opacity="1"><g transform="translate(48.973129, 25.508168)"><g><path d="M 0.34375 -22.578125 L 7.109375 -22.578125 L 7.109375 -12.515625 L 9.25 -16.9375 L 16.171875 -16.9375 L 12.0625 -8.46875 L 16.171875 0 L 9.25 0 L 7.109375 -4.421875 L 7.109375 0 L 0.34375 0 Z M 0.34375 -22.578125 "/></g></g></g></g></g></g></g><g clip-path="url(#4ccc96f0a0)"><g transform="matrix(1, 0, 0, 1, 41, 0.00000000000000569)"><g clip-path="url(#4171013caa)"><g clip-path="url(#487d1177c4)"><path fill="#ffffff" d="M 0.710938 0.421875 L 7.769531 0.421875 L 7.769531 7.476562 L 0.710938 7.476562 Z M 0.710938 0.421875 " fill-opacity="1" fill-rule="nonzero"/></g></g></g></g><g clip-path="url(#6eee349c74)"><g clip-path="url(#44b236d462)"><g transform="matrix(1, 0, 0, 1, 41, 2)"><g clip-path="url(#d8cf0ae90f)"><g clip-path="url(#3ba51a832c)"><g clip-path="url(#2610d21a80)"><path fill="#000000" d="M 0.839844 0.351562 L 7.644531 0.351562 L 7.644531 6.902344 L 0.839844 6.902344 Z M 0.839844 0.351562 " fill-opacity="1" fill-rule="nonzero"/></g></g></g></g></g></g><g clip-path="url(#628973de31)"><g clip-path="url(#68171ab54c)"><g transform="matrix(1, 0, 0, 1, 41, 24)"><g clip-path="url(#e835b7d8b5)"><g clip-path="url(#8b2e03248b)"><g clip-path="url(#f1f31d9b58)"><path fill="#000000" d="M 7.636719 4.539062 L 0.84375 4.539062 L 0.84375 0.804688 L 7.636719 0.804688 Z M 7.636719 4.539062 " fill-opacity="1" fill-rule="nonzero"/></g></g></g></g></g></g></g></g></g></svg>